<svg viewBox="-50 -50 100 100" xmlns="http://www.w3.org/2000/svg">
  <defs>
    <linearGradient id="navy" x1="50%" y1="0%" x2="50%" y2="100%">
      <stop offset="0%" stop-color="#112B4D"/><stop offset="100%" stop-color="#0A2A4E"/>
    </linearGradient>
    <linearGradient id="blue" x1="50%" y1="0%" x2="50%" y2="100%">
      <stop offset="0%" stop-color="#92B5DA"/><stop offset="100%" stop-color="#7BA6D9"/>
    </linearGradient>
  </defs>
  <g><g transform="rotate(0)"><path d="M 0 0 C -3 -12, 6 -28, 22 -34 C 36 -38, 46 -28, 42 -14 C 38 -4, 28 -2, 20 -6 C 12 -10, 4 -6, 0 0 Z" fill="url(#navy)"/></g>
     <g transform="rotate(72)"><path d="M 0 0 C -3 -12, 6 -28, 22 -34 C 36 -38, 46 -28, 42 -14 C 38 -4, 28 -2, 20 -6 C 12 -10, 4 -6, 0 0 Z" fill="url(#blue)"/></g>
     <g transform="rotate(144)"><path d="M 0 0 C -3 -12, 6 -28, 22 -34 C 36 -38, 46 -28, 42 -14 C 38 -4, 28 -2, 20 -6 C 12 -10, 4 -6, 0 0 Z" fill="url(#navy)"/></g>
     <g transform="rotate(216)"><path d="M 0 0 C -3 -12, 6 -28, 22 -34 C 36 -38, 46 -28, 42 -14 C 38 -4, 28 -2, 20 -6 C 12 -10, 4 -6, 0 0 Z" fill="url(#blue)"/></g>
     <g transform="rotate(288)"><path d="M 0 0 C -3 -12, 6 -28, 22 -34 C 36 -38, 46 -28, 42 -14 C 38 -4, 28 -2, 20 -6 C 12 -10, 4 -6, 0 0 Z" fill="url(#navy)"/></g>
     <circle cx="0" cy="0" r="1.6" fill="#1F5AA8"/></g>
</svg>
