<svg viewBox="0 0 100 100" xmlns="http://www.w3.org/2000/svg">
  <rect width="100" height="100" fill="#FFFFFF" rx="18"/>
  <g transform="translate(50,50)">
    <g transform="rotate(0)"><path d="M 0 0 C -2 -10, 8 -22, 24 -22 C 36 -22, 42 -14, 42 -4 C 32 -8, 18 -8, 8 -4 C 2 -2, 0 0, 0 0 Z" fill="#0A2A4E"/></g>
    <g transform="rotate(72)"><path d="M 0 0 C -2 -10, 8 -22, 24 -22 C 36 -22, 42 -14, 42 -4 C 32 -8, 18 -8, 8 -4 C 2 -2, 0 0, 0 0 Z" fill="#7BA6D9" opacity="0.85"/></g>
    <g transform="rotate(144)"><path d="M 0 0 C -2 -10, 8 -22, 24 -22 C 36 -22, 42 -14, 42 -4 C 32 -8, 18 -8, 8 -4 C 2 -2, 0 0, 0 0 Z" fill="#0A2A4E"/></g>
    <g transform="rotate(216)"><path d="M 0 0 C -2 -10, 8 -22, 24 -22 C 36 -22, 42 -14, 42 -4 C 32 -8, 18 -8, 8 -4 C 2 -2, 0 0, 0 0 Z" fill="#7BA6D9" opacity="0.85"/></g>
    <g transform="rotate(288)"><path d="M 0 0 C -2 -10, 8 -22, 24 -22 C 36 -22, 42 -14, 42 -4 C 32 -8, 18 -8, 8 -4 C 2 -2, 0 0, 0 0 Z" fill="#0A2A4E"/></g>
    <circle cx="0" cy="0" r="2.2" fill="#1F5AA8"/>
  </g>
</svg>
